<svg width="300" height="250" xmlns="http://www.w3.org/2000/svg" fill-rule="evenodd" clip-rule="evenodd" stroke-linejoin="round" stroke-miterlimit="1.414"><path d="M253.661 71.943l8.248-6.018c-3.12-3.344-6.467-7.357-6.467-13.82 0-4.906 3.347-10.254 7.582-12.485-2.229-2.676-5.796-5.128-10.926-5.128-6.684 0-12.26 4.905-12.26 11.37 0 4.457 2.9 8.246 6.242 10.032 0 6.241 2.899 11.814 7.581 16.05m-44.14-43.916l6.912-12.262h-10.256c0 2.23-2.006 4.683-4.462 4.683-2.674 0-4.456-1.783-4.456-4.683h-9.138c0 2.677-2.008 4.683-4.46 4.683-2.449 0-4.46-2.004-4.46-4.683h-10.253l6.016 11.817c4.683-.445 9.14-.67 13.598-.67 8.254 0 15.386.445 20.96 1.115m-18.724 108.79c-1.116-2.011-2.231-4.463-2.231-8.92 0-5.798 3.344-10.699 10.476-13.82 4.685-2.232 8.25-4.236 14.493-7.357 14.713-7.582 19.839-21.845 19.839-36.556 0-7.36-2.006-13.155-4.462-18.058.67 4.012 1.34 7.356 1.34 11.369 0 15.381-5.348 26.75-19.394 33.66-8.92 4.457-13.375 6.243-18.728 8.919-7.577 4.01-11.812 9.136-11.812 15.377 0 7.804 4.01 13.598 10.479 15.386m-8.697-2.902c-2.452-2.453-5.126-6.911-5.126-12.71 0-7.351 4.903-13.597 13.598-18.055 7.58-3.564 12.037-5.348 18.723-8.472 14.046-6.911 18.283-18.723 18.283-31.43 0-12.26-4.017-18.506-7.359-22.516 2.454 4.683 3.122 10.256 3.122 14.936 0 13.598-4.015 25.412-19.837 31.656-8.027 3.344-13.155 4.457-20.066 7.577-10.924 5.132-15.159 11.15-15.159 20.066 0 8.472 5.348 16.495 13.82 18.948m-8.472-1.783c-3.79-3.122-8.694-8.245-8.694-17.385 0-9.59 4.016-16.722 16.501-22.073 8.022-3.342 12.26-4.905 19.837-7.802 16.051-6.018 19.396-17.835 19.396-29.424 0-11.149-4.015-17.613-8.92-21.85 2.899 3.567 4.685 9.588 4.685 15.83 0 14.712-5.574 22.957-21.402 28.533-6.467 2.008-13.376 4.015-20.507 6.689-12.932 4.905-19.623 12.039-19.623 24.076 0 12.482 9.59 21.85 18.727 23.406m-8.915-1.557c-8.915-4.462-13.152-14.047-13.152-22.517 0-12.262 7.581-20.955 20.286-25.635 7.805-2.899 14.048-4.682 21.848-7.357 15.16-5.35 20.066-12.486 20.066-26.082 0-7.802-2.9-14.49-7.582-18.28 1.563 1.786 2.009 4.014 2.009 6.02 0 3.788-2.009 5.574-4.906 5.574-1.783 0-3.567-1.116-3.79-2.897.894.668 1.562.888 2.45.888 2.456 0 3.79-1.781 3.79-4.232 0-3.79-3.565-5.796-7.132-6.242-3.122-.445-6.469-.445-10.258-.445-3.788 0-7.355.223-12.035.445 2.895 4.01 12.48 2.897 15.381 4.903-2.451-.225-4.902-.225-7.356.446 0 1.56-.668 3.344-2.229 3.344-2.897 0-4.233-3.122-6.241-8.693l-11.37.891c-1.78.223-2.45.89-2.228 2.231l1.116 11.144c0 .448.445.668.892.668.444 0 .891-.223 1.114-.89.443-.891 1.783-2.9 5.128-2.9 4.903 0 8.692 4.46 8.915 9.588-1.78-2.454-5.796-4.682-12.48-4.682-5.13 0-9.363 1.558-16.05 1.558-7.136 0-11.146-2.674-11.146-6.018 0-1.561.223-2.452 1.114-3.567-2.897 1.338-5.128 3.79-5.128 7.804 0 4.903 3.564 10.03 14.045 10.03 9.588 0 14.045-6.018 22.738-6.018 4.015 0 6.016 2.006 6.016 4.233 0 2.008-1.781 3.79-4.903 3.79-3.79 0-6.463-2.004-7.804-4.013-.223-.443-.443-.665-.893-.665-.666 0-.888.445-.888.888l.222 10.703c0 1.336.666 2.006 2.227 1.786 6.689-.67 13.598-1.563 20.066-2.008 12.037-1.114 20.284-9.138 20.284-18.056 0-1.338 0-2.453-.225-3.79 1.118 1.784 1.564 3.57 1.564 5.799 0 8.25-4.46 14.488-18.728 18.28-7.58 2.004-13.15 2.897-19.619 4.458-17.165 4.014-28.313 17.162-28.313 31.878 0 13.59 9.587 25.85 23.185 27.638M90.036 50.098c.892-2.006 1.113-3.79 1.113-5.127 0-2.897-1.336-5.574-2.677-6.69 3.345 0 6.242 2.455 6.242 5.797 0 3.121-2.004 5.127-4.678 6.02m41.018 53.053l7.132-3.787c2.453-14.938 11.369-25.414 26.973-29.202-8.248.443-15.382.666-25.413 1.111-10.703.448-28.313 1.786-40.573 2.677-2.451.222-4.012-.666-4.682-2.677-.666-2.226-2.004-6.464-2.229-8.915-.223-2.006.225-3.344 2.009-4.683 3.564-2.451 7.131-5.348 7.131-11.366 0-6.466-5.573-10.701-10.699-10.701-1.785 0-3.121.225-4.234.67-1.339-.893-2.675-1.56-5.353-1.56-3.788 0-7.132 2.45-8.025 4.457-6.464-.446-11.592 4.237-11.146 10.478.893-.89 2.674-1.786 4.682-1.786 2.452 0 4.68 1.786 4.68 4.46 0 2.454-.445 5.573-.445 8.918 0 10.255 8.25 15.606 8.25 20.954 0 2.677-2.006 4.905-4.683 4.905 1.561 5.571 6.687 8.47 13.598 8.47 4.46 0 8.472-.443 14.936-.443 18.503-.002 26.53 2.004 28.09 8.02m68.66 63.089h2.227c-.225-7.132-2.004-12.037-4.903-17.165-1.561-2.895-3.565-6.019-5.128-8.027-.89-1.336-2.004-1.779-3.345-1.779-.892 0-1.56.666-.892 1.779 1.783 2.9 4.235 7.357 7.356 14.268-2.676.448-3.344 1.786-3.344 4.015.004 3.564 3.347 6.909 8.03 6.909M81.337 50.989c.223-6.243-2.451-9.588-6.24-11.146.667-.223 1.56-.668 2.896-.668 2.9 0 6.02 2.453 6.02 6.243.003 2.002-.667 4.233-2.676 5.571m142.897 156.937c-.893-2.006-3.79-4.01-7.355-4.01-2.008 0-3.344.443-4.237.888.225-1.783 2.008-3.787 5.575-3.787 4.235 0 6.464 3.344 6.017 6.909m-1.339 9.59c-1.336-1.563-3.567-2.899-6.463-2.899-3.567 0-5.349 1.56-6.244 2.674-.445-2.674 1.784-6.018 6.019-6.018 4.462-.003 6.688 3.121 6.688 6.243m-158.5-106.34c1.563-3.79 5.128-6.464 9.365-7.354.891-1.34 2.004-2.452 3.122-3.345l-7.58-31.655c-.892-2.23-1.56-4.46-1.56-7.58 0-3.344.668-6.688.668-8.472 0-1.56-.893-2.006-1.784-2.006-.668 0-1.115 0-1.338.225v.89c0 5.128-3.122 9.139-8.247 9.139-5.128 0-9.143-4.233-9.143-9.138 0-4.906 4.015-8.916 9.143-8.916.89 0 2.006 0 3.344.446 1.559-4.015 6.464-7.58 11.592-6.912-3.567-4.457-8.915-7.131-14.934-7.131-12.932 0-23.185 9.36-23.185 22.513 0 12.261 10.03 22.07 22.515 22.292l8.022 37.004zm34.555 47.932c3.344 0 6.911-1.784 10.255-5.128 6.019-5.798 14.491-14.49 19.617-17.835 4.46-2.894 7.356-4.015 10.255-4.015 1.784 0 3.12.448 4.458 1.784l7.582-5.798c-8.693-6.464-12.71-14.934-12.93-25.412-12.04 6.464-20.732 15.379-30.763 23.853-1.786 1.336-2.676 2.006-4.237 2.006-1.56 0-2.897-1.563-5.57-4.234-2.232-2.232-2.677-3.568-2.677-5.128 0-2.677.89-3.567.89-7.134 0-7.137-5.57-11.149-10.923-11.149-4.458 0-7.802 2.456-8.918 5.575-6.018.446-9.808 4.903-9.808 9.584 0 1.117.223 2.006.445 2.676-2.23 1.34-4.46 4.015-4.46 7.58 0 3.791 2.007 7.358 5.349 8.472-.443-.67-.666-1.557-.666-2.675 0-2.006 1.783-3.787 4.233-3.787 2.008 0 3.344.666 4.905 2.447 2.006 2.681 4.014 5.132 7.357 8.027 3.121 2.676 6.688 4.458 10.033 6.468 2.006 1.336 3.567 3.117 3.567 5.794 0 1.786-1.339 3.792-4.013 4.462 1.116 2.45 3.345 3.567 6.019 3.567m-12.705-43.472c-.225-4.46-3.567-8.027-7.804-8.918.67-.443 1.785-1.113 3.567-1.113 3.121 0 5.575 2.674 5.575 5.571-.002 2.231-.672 3.344-1.338 4.46m24.744 117.261c-.893-1.115-1.338-2.228-1.338-3.569 0-2.674 2.229-4.68 5.348-4.68 4.908 0 7.582 5.348 14.045 5.348 7.357 0 10.926-5.348 17.613-5.348 3.346 0 8.022 2.006 8.022 6.24 0 .671-.222 1.341-.666 1.784 7.578 0 12.93-6.463 12.93-17.167 0-14.931-.447-20.956-.67-29.201 5.796-.223 11.371-3.122 10.476-12.26-1.563 1.336-3.344 2.006-5.348 2.006-2.676 0-4.683-2.006-4.683-4.905 0-1.338 0-2.9.225-4.458l26.08-.67c-2.449-1.338-4.235-4.015-4.235-7.132 0-2.23.896-3.792 2.68-4.685-2.455-5.127-4.46-9.14-6.912-12.927-1.338-2.006-2.897-4.015-6.021-4.015-6.91-.222-20.952 1.782-28.086 4.235-5.348 1.782-10.476 5.796-10.476 14.936 0 8.47 2.896 23.406 2.676 46.814 0 3.345-.893 4.458-2.897 4.901-1.783.448-6.466.893-9.363.448-1.563-.223-2.896-1.336-3.79-4.68-1.117-4.685-4.46-9.368-11.146-9.368-6.02 0-11.369 4.462-10.478 11.146-2.897 1.786-4.235 4.685-4.235 7.357 0 2.672.89 4.905 2.006 6.243-.668 1.564-.893 2.45-.893 4.013-.006 5.58 4.899 9.594 9.136 9.594m-31.433-111.24c-1.338-2.674-4.235-4.235-7.58-4.235-1.335 0-2.45.222-3.344.443.446-1.784 2.452-3.345 5.351-3.345 3.787 0 6.241 2.902 5.573 7.137m39.01 86.269c-.89-2.006-3.79-4.01-7.357-4.01-2.004 0-3.344.443-4.235.888.225-1.783 2.007-3.787 5.576-3.787 4.233 0 6.461 3.344 6.016 6.909M99.62 227.324c-.668-1.34-.893-2.676-.893-4.014 0-1.336.223-2.45.668-3.567-1.116-2.004-1.781-4.235-1.781-6.687 0-3.344 1.558-6.464 3.787-8.472l-13.82-59.967c-2.232-1.113-4.46-2.451-6.244-4.014-3.122-2.674-4.903-4.68-7.802-8.023-.89-.897-1.56-1.34-2.454-1.34-1.336 0-2.226.893-1.78 2.676l2.896 13.818 6.018 4.238 16.72 71.785 4.685 3.567zm17.612-9.808c-1.338-1.563-3.567-2.899-6.464-2.899-3.567 0-5.352 1.56-6.245 2.674-.443-2.674 1.785-6.018 6.02-6.018 4.458-.003 6.69 3.121 6.69 6.243M7.105 234.233l13.596-10.474 16.719-71.785 6.02-4.237 13.376-57.509-2.9-13.377c-3.343-.67-6.243-1.56-8.694-2.9L7.106 234.234zm209.55-1.336c-.894-1.115-1.341-2.228-1.341-3.569 0-2.674 2.23-4.68 5.353-4.68 4.902 0 7.579 5.348 14.045 5.348 7.354 0 10.924-5.348 17.61-5.348 3.344 0 8.025 2.006 8.025 6.24 0 .671-.225 1.341-.67 1.784 7.581 0 12.932-6.463 12.932-17.167 0-14.265-1.339-30.092-2.902-45.92 4.015-.894 7.807-4.906 7.807-10.034 0-1.783-.668-3.787-1.786-5.57-1.113 1.562-3.117 2.894-6.464 3.787-4.682 1.34-10.476 2.01-14.713 2.01-9.586 0-12.71-.67-17.167-2.01-.225-6.017-4.013-10.922-7.58-14.264 5.574 2.227 8.025 3.344 16.943 3.344 28.536 0 46.146-19.17 46.146-41.02 0-15.827-10.031-23.184-19.171-28.536l-8.472 6.02c10.255 4.683 16.942 11.59 16.942 20.953 0 10.255-8.248 17.612-17.835 17.612-10.254 0-18.28-7.357-18.28-17.39 0-7.574 3.569-13.148 10.257-18.5 6.687-5.35 16.94-11.817 22.513-17.835 2.9-3.122 5.35-8.025 5.128-11.815 3.792-1.786 6.689-5.575 6.689-10.478 0-6.464-6.241-11.37-12.93-11.37-4.014 0-8.472 2.455-10.7 5.129 4.014 1.56 7.806 6.911 7.806 12.484 0 4.683-2.9 8.693-6.246 12.037-5.126 5.126-11.814 8.918-19.171 14.936-8.918 7.36-14.268 16.052-14.268 25.858 0 13.597 10.478 26.305 26.973 26.305 5.353 0 9.59-1.114 12.712-3.122-5.353 6.243-15.384 9.363-25.862 9.363-9.14 0-15.384-1.336-22.07-6.241-6.019-4.458-10.701-14.934-10.476-22.74-4.906 2.898-10.704 5.575-15.604 7.806-6.912 3.346-9.14 6.911-9.14 12.927 0 8.025 5.573 14.268 8.024 18.949 3.344 6.018 4.46 11.369 4.905 16.944 1.336 13.598 9.14 19.837 22.96 19.837 6.24 0 14.49-.448 17.836-.893 1.336 6.246 2.897 13.598 2.897 19.173 0 3.345-.895 4.458-2.897 4.9-1.784.448-6.468.894-9.363.448-1.563-.222-2.899-1.335-3.792-4.68-1.113-4.685-4.457-9.367-11.144-9.367-6.02 0-11.371 4.462-10.478 11.146-2.895 1.786-4.235 4.685-4.235 7.357 0 2.672.893 4.905 2.006 6.243-.666 1.563-.89 2.45-.89 4.012-.003 5.583 4.902 9.597 9.137 9.597" fill="#f3f4f5" fill-rule="nonzero"/></svg>